<svg xmlns="http://www.w3.org/2000/svg" width="16" height="21" viewBox="0 0 16 21">
    <g fill="#FFF" fill-rule="nonzero">
        <path d="M14.844 9.152h-.314V6.416C14.53 2.879 11.603 0 7.998 0c-3.6 0-6.532 2.875-6.532 6.416a.59.59 0 0 0 .598.587.59.59 0 0 0 .598-.587c0-2.888 2.39-5.242 5.336-5.242 2.94 0 5.336 2.35 5.336 5.242v2.736H1.156C.518 9.152 0 9.66 0 10.287v7.312C0 19.473 1.554 21 3.463 21h9.074C14.446 21 16 19.473 16 17.599v-7.312c0-.626-.518-1.135-1.156-1.135zm-.04 8.447c0 1.226-1.014 2.227-2.267 2.227h-9.07c-1.248 0-2.267-.996-2.267-2.227v-7.273h13.604v7.273z"/>
        <path d="M8 17c1.105 0 2-.899 2-2 0-1.105-.899-2-2-2-1.105 0-2 .899-2 2s.895 2 2 2zm0-2.935a.932.932 0 0 1 0 1.866.932.932 0 0 1 0-1.866z"/>
    </g>
</svg>
