<?xml version="1.0" encoding="utf-8"?>
<!-- Generator: Adobe Illustrator 21.0.0, SVG Export Plug-In . SVG Version: 6.00 Build 0)  -->
<svg version="1.1" id="Layer_1" xmlns="http://www.w3.org/2000/svg" xmlns:xlink="http://www.w3.org/1999/xlink" x="0px" y="0px"
	 viewBox="0 0 283.5 283.5" style="enable-background:new 0 0 283.5 283.5;" xml:space="preserve">
<style type="text/css">
	.st0{fill:#fff;}
</style>
<g>
	<path class="st0" d="M192.7,213l-44.2-22.1c-4.2-2.1-6.8-6.3-6.8-11v-15.6c1.1-1.3,2.2-2.8,3.3-4.4c5.7-8.1,10.3-17.1,13.7-26.9
		c6.5-3,10.8-9.5,10.8-16.7V97.7c0-4.5-1.7-8.8-4.6-12.1V61c0.2-2.5,1.3-17.7-9.7-30.2c-9.5-10.9-25-16.3-45.9-16.3
		S72.9,20,63.4,30.8c-11,12.5-9.9,27.7-9.7,30.2v24.6c-3,3.4-4.6,7.7-4.6,12.1v18.5c0,5.6,2.6,10.9,6.9,14.4
		c4.2,16.8,13.1,29.5,16.2,33.5v15.3c0,4.5-2.4,8.6-6.4,10.7l-41.3,22.5C11.1,219.9,2.7,234,2.7,249.3v19.6h213v-18.7
		C215.8,234.4,207,220.1,192.7,213L192.7,213z"/>
	<path class="st0" d="M259.7,218.3l-45-19.5c-1.1-0.5-2.2-1.8-3.3-3.6h30.2c0,0,1.7,0.2,4.5,0.2c5,0,12.2-0.6,18.5-3.3
		c3.8-1.6,6.6-4.8,7.7-8.8s0.4-8.3-2-11.7c-8.6-12.3-28.8-44.4-29.4-77c0-0.6-1.8-55.9-56.5-56.4c-5.5,0-10.7,0.7-15.6,1.9
		c3.7,9.7,3.3,18.4,3.1,21.2v21.9c3,4.3,4.6,9.3,4.6,14.5v18.5c0,8.8-4.7,17-12.1,21.6c-3.5,9.4-8.1,18.1-13.7,26
		c-0.7,1-1.4,1.9-2.1,2.8v13.2c0,2.1,1.1,3.8,2.9,4.7l44.2,22.1c16.6,8.3,26.9,25,26.9,43.6v18.7h57.9v-17.1
		C280.6,237.6,272.7,224.8,259.7,218.3L259.7,218.3z"/>
</g>
</svg>
